<svg width="180" height="180" viewBox="0 0 180 180" fill="none" xmlns="http://www.w3.org/2000/svg">
<g clip-path="url(#clip0_1973_22)">
<path fill-rule="evenodd" clip-rule="evenodd" d="M122.4 4.32H57.6C28.1743 4.32 4.32 28.1743 4.32 57.6V122.4C4.32 151.826 28.1743 175.68 57.6 175.68H122.4C151.826 175.68 175.68 151.826 175.68 122.4V57.6C175.68 28.1743 151.826 4.32 122.4 4.32ZM57.6 0C25.7882 0 0 25.7882 0 57.6V122.4C0 154.212 25.7882 180 57.6 180H122.4C154.212 180 180 154.212 180 122.4V57.6C180 25.7882 154.212 0 122.4 0H57.6Z" fill="black"/>
<path d="M93.6424 121.577L83.0674 118.642C81.8463 118.304 81.0006 117.182 81.0006 115.904V109.401C81.0006 107.833 82.2592 106.56 83.813 106.56H94.3883C95.9403 106.56 97.2006 107.832 97.2006 109.401V118.838C97.1988 120.714 95.433 122.074 93.6424 121.577ZM85.2447 124.323L94.7332 126.952C96.1894 127.357 97.2006 128.693 97.2006 130.217V154.569C97.2006 155.97 96.346 157.225 95.05 157.73L85.5615 161.411C83.363 162.264 81.0006 160.626 81.0006 158.251V127.586C80.9988 125.352 83.1084 123.731 85.2447 124.323ZM117.628 105.509L108.635 112.127C108.132 112.499 107.519 112.693 106.894 112.679C106.268 112.666 105.665 112.445 105.178 112.051L100.075 107.935C98.843 106.942 98.641 105.128 99.6231 103.882L106.312 95.4059C106.543 95.1103 106.831 94.8638 107.159 94.6806C107.487 94.4974 107.847 94.3812 108.22 94.3387C108.593 94.2962 108.971 94.3283 109.331 94.4332C109.692 94.538 110.028 94.7135 110.32 94.9494L117.727 100.924C119.198 102.11 119.15 104.388 117.628 105.509ZM114.433 113.759L122.459 107.928C123.059 107.492 123.785 107.265 124.527 107.281C125.268 107.297 125.984 107.556 126.564 108.017L145.606 123.176C146.141 123.601 146.534 124.179 146.733 124.833C146.933 125.486 146.929 126.185 146.723 126.837L143.632 136.597C142.915 138.858 140.148 139.701 138.291 138.22L114.315 119.132C112.569 117.741 112.626 115.072 114.433 113.759ZM120.238 76.4317L119.743 87.5996C119.686 88.8899 118.767 89.9821 117.501 90.269L111.06 91.7277C109.505 92.0798 107.96 91.1125 107.605 89.5703L105.194 79.0608C104.839 77.5167 105.811 75.9817 107.366 75.6296L116.714 73.5139C118.57 73.0909 120.32 74.5428 120.238 76.4317ZM124.564 84.2689L125.001 74.2533C125.068 72.7154 126.147 71.4133 127.634 71.0702L151.411 65.6054C152.08 65.4528 152.78 65.5077 153.417 65.7627C154.054 66.0176 154.599 66.4607 154.978 67.0328L160.703 75.6318C162.028 77.6233 160.962 80.3388 158.642 80.8719L128.704 87.7533C126.521 88.2537 124.465 86.5236 124.564 84.2689ZM98.9214 56.8567L107.375 64.1003C108.352 64.9373 108.637 66.311 108.075 67.4555L105.215 73.281C104.525 74.6868 102.806 75.2768 101.374 74.5989L91.6293 69.9845C90.1976 69.3066 89.5967 67.6182 90.2868 66.2124L94.4373 57.7581C95.2624 56.0787 97.4897 55.6316 98.9214 56.8567ZM107.687 58.2038L100.167 51.6687C99.6056 51.182 99.2202 50.5238 99.0704 49.7961C98.9205 49.0683 99.0146 48.3115 99.338 47.6425L109.971 25.6778C110.271 25.0596 110.751 24.5466 111.349 24.2064C111.946 23.8662 112.632 23.7146 113.317 23.7716L123.592 24.6133C125.974 24.8077 127.417 27.3216 126.38 29.465L112.992 57.1231C112.015 59.1373 109.379 59.6748 107.687 58.2038ZM70.3788 61.0748L81.2998 59.0862C81.9133 58.9749 82.5464 59.0679 83.102 59.351C83.6576 59.6341 84.105 60.0915 84.3756 60.6533L87.1991 66.5241C87.526 67.2043 87.5693 67.9864 87.3196 68.6985C87.0699 69.4106 86.5475 69.9944 85.8675 70.3214L76.2202 74.9586C75.54 75.2855 74.7578 75.3289 74.0456 75.0792C73.3334 74.8296 72.7495 74.3073 72.4222 73.6273L68.3247 65.1065C67.5086 63.4148 68.5302 61.4118 70.3788 61.0748ZM76.7894 54.6963L67.0564 56.4654C66.3295 56.5976 65.5793 56.4878 64.9208 56.1528C64.2622 55.8178 63.7318 55.2761 63.4107 54.6107L52.894 32.7759C52.5983 32.1625 52.4959 31.4737 52.6004 30.8007C52.7049 30.1278 53.0113 29.5024 53.479 29.0075L60.486 21.5796C62.1096 19.8588 64.9569 20.2987 65.9825 22.4303L79.2251 49.9238C80.1899 51.9269 78.98 54.2982 76.7894 54.6963ZM55.7816 85.9631L61.0307 76.3536C61.637 75.2451 62.9218 74.6695 64.1688 74.951L70.512 76.3802C72.0417 76.7255 72.9989 78.2256 72.6483 79.7307L70.2622 89.9868C69.9112 91.4919 68.387 92.4341 66.8573 92.0888L57.651 90.0131C55.8212 89.6023 54.8927 87.5906 55.7816 85.9631ZM55.0342 77.1643L50.3272 86.0322C49.604 87.3944 48.0714 88.0979 46.5839 87.7533L22.8084 82.2396C21.4412 81.9224 20.4072 80.7841 20.2092 79.3776L18.7559 69.0819C18.4193 66.6955 20.5491 64.7101 22.8696 65.2494L52.8058 72.1931C54.9874 72.6978 56.0937 75.1677 55.0342 77.1643ZM66.2043 112.766L61.7928 102.64C61.2831 101.471 61.6326 100.112 62.6468 99.3201L67.7973 95.2943C69.0407 94.3233 70.8486 94.5257 71.839 95.7446L78.5753 104.054C79.5639 105.275 79.358 107.05 78.1163 108.023L70.6409 113.867C69.1552 115.025 66.9524 114.478 66.2043 112.766ZM58.8358 107.912L62.7281 117.114C63.3264 118.526 62.9164 120.17 61.7273 121.126L42.7326 136.417C42.2012 136.847 41.5509 137.103 40.8693 137.152C40.1876 137.2 39.5075 137.038 38.9206 136.689L30.106 131.451C28.0634 130.237 27.861 127.329 29.714 125.837L53.6309 106.585C55.3748 105.18 57.9603 105.841 58.8358 107.912Z" fill="black"/>
</g>
<defs>
<clipPath id="clip0_1973_22">
<rect width="180" height="180" fill="white"/>
</clipPath>
</defs>
</svg>
